:SAMPLES-PER-SECOND 30
:FULLY-SPECIFIED
:DEGREES
16
root  80.5155 40.4169 -6.37112 -176.852 -89.2663 177.677
RightUpLeg  -1.3317 -8.24439 -6.18457
RightLeg  2.34817 -1.38137 3.59925
RightFoot  -0.465292 -0.0734075 0.6056
RightToes  -5.8209e-011 0 -3.6325e-017
Spine  2.99537 -0.313349 1.01309
Spine1  1.06069 -0.133113 -1.01151
HEad  -1.55075 5.04991 -0.397488
LeftShoulder1  0.461202 0.731755 -9.00178
LeftArm  -15.4521 6.50095 0.687495
LeftForeArm  11.8905 -1.50116 -2.70721
LeftHand  -0.244104 0.0205437 5.32207
RightShoulder  0.361457 -0.851973 5.9021
RightArm  -20.4076 3.0621 -0.385539
RightForeArm  2.07413 -0.913902 3.23415
RightHand  -0.862426 2.68583 -12.5785
LeftUpLeg  -1.67723 6.12187 5.30209
LeftLeg  1.95467 8.93345 -3.78217
LeftFoot  -1.04059 0.181997 -1.98713
LeftToes  -6.09394e-011 -3.18376e-011 -2.71738e-012
17
root  80.5055 40.4174 -6.36346 -176.593 -89.1795 177.422
RightUpLeg  -1.29669 -8.24284 -6.21132
RightLeg  2.26659 -1.25765 3.59948
RightFoot  -0.440037 -0.0898557 0.87327
RightToes  -5.8209e-011 0 -3.6325e-017
Spine  2.89563 -0.279457 0.891202
Spine1  1.22818 -0.122681 -0.894183
HEad  -1.53787 5.05593 -0.497443
LeftShoulder1  0.463054 0.717812 -9.01731
LeftArm  -15.6068 6.53618 0.5911
LeftForeArm  12.0506 -1.36311 -2.61704
LeftHand  -0.244104 0.0205437 5.32207
RightShoulder  0.369599 -0.802345 5.95789
RightArm  -20.2543 2.96802 -0.462646
RightForeArm  2.23521 -0.902797 3.26928
RightHand  -0.869331 2.84863 -12.4341
LeftUpLeg  -1.65769 6.22354 5.33943
LeftLeg  1.98748 8.91774 -3.88351
LeftFoot  -1.07656 0.178328 -1.93007
LeftToes  -6.09394e-011 -3.18376e-011 -2.71738e-012
18
root  80.4988 40.4181 -6.35728 -176.425 -89.0909 177.3
RightUpLeg  -1.3355 -8.22644 -6.21369
RightLeg  2.22679 -1.17709 3.58639
RightFoot  -0.421687 -0.0952725 0.969064
RightToes  -5.8209e-011 0 -3.6325e-017
Spine  2.87576 -0.240355 0.737535
Spine1  1.23211 -0.116031 -0.729083
HEad  -1.60996 4.91959 -0.43279
LeftShoulder1  0.46731 0.703547 -9.08932
LeftArm  -15.734 6.52812 0.540826
LeftForeArm  12.3035 -1.14651 -2.52822
LeftHand  -0.244104 0.0205437 5.32207
RightShoulder  0.374842 -0.773748 6.02246
RightArm  -20.0468 2.86722 -0.501397
RightForeArm  2.47131 -0.769091 3.33038
RightHand  -0.873888 2.98679 -12.2956
LeftUpLeg  -1.66588 6.33311 5.38383
LeftLeg  1.97141 8.90111 -4.00831
LeftFoot  -1.07973 0.173063 -1.85148
LeftToes  -6.09394e-011 -3.18376e-011 -2.71738e-012
19
root  80.4936 40.419 -6.34972 -177.297 -89.0223 178.241
RightUpLeg  -1.41436 -8.19458 -6.18514
RightLeg  2.21829 -1.17011 3.56401
RightFoot  -0.406734 -0.0895877 0.905204
RightToes  -5.8209e-011 0 -3.6325e-017
Spine  2.8426 -0.211261 0.66625
Spine1  1.24459 -0.100657 -0.656333
HEad  -1.76515 4.70641 -0.272789
LeftShoulder1  0.483697 0.612269 -9.14169
LeftArm  -15.7709 6.56242 0.52244
LeftForeArm  12.3692 -0.943905 -2.47654
LeftHand  -0.244104 0.0205437 5.32207
RightShoulder  0.374617 -0.793203 6.13709
RightArm  -19.9909 2.85392 -0.485161
RightForeArm  2.31097 -0.67357 3.36465
RightHand  -0.867716 2.85432 -12.4092
LeftUpLeg  -1.70199 6.40034 5.4163
LeftLeg  1.93662 8.909 -4.08628
LeftFoot  -1.06291 0.165982 -1.75437
LeftToes  -6.09394e-011 -3.18376e-011 -2.71738e-012
20
root  80.4872 40.4208 -6.33875 -178.063 -88.9882 179.054
RightUpLeg  -1.45132 -8.19085 -6.17983
RightLeg  2.20563 -1.19108 3.56329
RightFoot  -0.389465 -0.0813061 0.819763
RightToes  -5.8209e-011 0 -3.6325e-017
Spine  2.82676 -0.184468 0.683807
Spine1  1.27744 -0.0623132 -0.707924
HEad  -1.93316 4.5302 -0.151431
LeftShoulder1  0.513626 0.433869 -9.15901
LeftArm  -15.7166 6.64739 0.526339
LeftForeArm  12.2009 -0.915403 -2.48648
LeftHand  -0.244104 0.0205437 5.32207
RightShoulder  0.372193 -0.855433 6.37234
RightArm  -20.1167 2.91692 -0.528181
RightForeArm  1.99223 -0.752889 3.33089
RightHand  -0.860192 2.59644 -12.6791
LeftUpLeg  -1.72133 6.39599 5.40731
LeftLeg  1.89953 8.94749 -4.09205
LeftFoot  -1.04592 0.160533 -1.68252
LeftToes  -6.09394e-011 -3.18376e-011 -2.71738e-012
21
root  80.4788 40.4232 -6.32446 -177.331 -88.9804 178.325
RightUpLeg  -1.44916 -8.23266 -6.22609
RightLeg  2.23529 -1.20596 3.58035
RightFoot  -0.385605 -0.0668837 0.669651
RightToes  -5.8209e-011 0 -3.6325e-017
Spine  2.98824 -0.154464 0.669585
Spine1  1.13048 -0.0252372 -0.730863
HEad  -2.05866 4.42499 -0.0965356
LeftShoulder1  0.537746 0.300941 -9.23372
LeftArm  -15.5922 6.69236 0.574612
LeftForeArm  12.0829 -1.09319 -2.55776
LeftHand  -0.244104 0.0205437 5.32207
RightShoulder  0.365887 -0.945859 6.65864
RightArm  -20.1945 2.95354 -0.640692
RightForeArm  2.17924 -0.855723 3.28085
RightHand  -0.871127 2.65267 -12.7527
LeftUpLeg  -1.69108 6.33705 5.35067
LeftLeg  1.85019 9.00937 -4.0646
LeftFoot  -1.03209 0.158415 -1.66242
LeftToes  -6.09394e-011 -3.18376e-011 -2.71738e-012
22
root  80.4679 40.4248 -6.30931 -175.793 -88.9548 176.774
RightUpLeg  -1.44944 -8.27343 -6.28455
RightLeg  2.30025 -1.18841 3.58178
RightFoot  -0.393085 -0.0517335 0.513572
RightToes  -5.8209e-011 0 -3.6325e-017
Spine  3.27217 -0.124663 0.569858
Spine1  0.853012 -0.014052 -0.624554
HEad  -2.12376 4.32507 -0.10593
LeftShoulder1  0.538281 0.32351 -9.38322
LeftArm  -15.4123 6.64885 0.614458
LeftForeArm  12.1354 -1.29336 -2.66405
LeftHand  -0.244104 0.0205437 5.32207
RightShoulder  0.350744 -1.07813 6.83041
RightArm  -20.0946 2.97836 -0.667159
RightForeArm  2.86045 -0.797049 3.28728
RightHand  -0.89386 3.01722 -12.5358
LeftUpLeg  -1.63693 6.28538 5.28841
LeftLeg  1.80777 9.0837 -4.05377
LeftFoot  -1.03501 0.158188 -1.67176
LeftToes  -6.09394e-011 -3.18376e-011 -2.71738e-012
23
root  80.4531 40.4244 -6.29557 -175.638 -88.8852 176.623
RightUpLeg  -1.43634 -8.27316 -6.30832
RightLeg  2.28211 -1.1156 3.56859
RightFoot  -0.377379 -0.051951 0.558595
RightToes  -5.8209e-011 0 -3.6325e-017
Spine  3.38365 -0.122086 0.479778
Spine1  0.81292 -0.043707 -0.462379
HEad  -2.15535 4.27001 -0.245202
LeftShoulder1  0.52215 0.446742 -9.54234
LeftArm  -15.2722 6.61904 0.579777
LeftForeArm  12.1045 -1.35497 -2.73902
LeftHand  -0.244104 0.0205437 5.32207
RightShoulder  0.331289 -1.20713 6.79178
RightArm  -19.9737 3.10418 -0.501915
RightForeArm  3.35279 -0.663345 3.33337
RightHand  -0.899229 3.21807 -12.3276
LeftUpLeg  -1.60483 6.28836 5.27055
LeftLeg  1.80514 9.14949 -4.06805
LeftFoot  -1.07261 0.157882 -1.68002
LeftToes  -6.09394e-011 -3.18376e-011 -2.71738e-012
24
root  80.4352 40.4251 -6.28228 -176.766 -88.8043 177.782
RightUpLeg  -1.40122 -8.26265 -6.30907
RightLeg  2.16915 -1.01444 3.57159
RightFoot  -0.334935 -0.0589216 0.700387
RightToes  -5.8209e-011 0 -3.6325e-017
Spine  3.34353 -0.130918 0.497852
Spine1  0.898666 -0.063989 -0.41361
HEad  -2.11715 4.29857 -0.434844
LeftShoulder1  0.535633 0.378868 -9.61451
LeftArm  -15.236 6.76652 0.557486
LeftForeArm  11.9362 -1.29751 -2.7313
LeftHand  -0.244104 0.0205437 5.32207
RightShoulder  0.332596 -1.20331 6.82742
RightArm  -19.8264 3.19182 -0.475604
RightForeArm  3.1646 -0.565253 3.41229
RightHand  -0.884964 3.03872 -12.3844
LeftUpLeg  -1.60014 6.3146 5.27989
LeftLeg  1.81276 9.20311 -4.08309
LeftFoot  -1.11784 0.156724 -1.67522
LeftToes  -6.09394e-011 -3.18376e-011 -2.71738e-012
25
root  80.4178 40.4284 -6.26709 -176.717 -88.7445 177.782
RightUpLeg  -1.40929 -8.29068 -6.33474
RightLeg  2.11959 -0.930584 3.5899
RightFoot  -0.309793 -0.0508627 0.601551
RightToes  -5.8209e-011 0 -3.6325e-017
Spine  3.28942 -0.153701 0.492955
Spine1  0.946124 -0.099991 -0.348991
HEad  -2.1113 4.4898 -0.58197
LeftShoulder1  0.572228 0.18591 -9.74465
LeftArm  -15.2532 6.97067 0.686813
LeftForeArm  11.9089 -1.22231 -2.67932
LeftHand  -0.244104 0.0205437 5.32207
RightShoulder  0.363858 -0.996446 6.89142
RightArm  -19.6486 3.06762 -0.588495
RightForeArm  2.54084 -0.468448 3.49925
RightHand  -0.865866 2.7055 -12.5977
LeftUpLeg  -1.59749 6.29787 5.24825
LeftLeg  1.7659 9.27827 -4.08904
LeftFoot  -1.11931 0.154108 -1.64805
LeftToes  -6.09394e-011 -3.18376e-011 -2.71738e-012
26
root  80.4019 40.4322 -6.25148 -174.842 -88.6912 175.969
RightUpLeg  -1.49152 -8.33869 -6.3907
RightLeg  2.18339 -0.865418 3.59209
RightFoot  -0.316162 -0.0326115 0.337832
RightToes  -5.8209e-011 0 -3.6325e-017
Spine  3.34322 -0.154518 0.311302
Spine1  0.8243 -0.153941 -0.0683416
HEad  -2.12769 4.7577 -0.697449
LeftShoulder1  0.594072 0.114482 -10.0614
LeftArm  -15.1693 6.97925 0.921707
LeftForeArm  12.1639 -1.16391 -2.68869
LeftHand  -0.244104 0.0205437 5.32207
RightShoulder  0.399335 -0.739491 6.81958
RightArm  -19.5234 2.76029 -0.663128
RightForeArm  2.15053 -0.260729 3.54905
RightHand  -0.844736 2.45018 -12.6785
LeftUpLeg  -1.59613 6.24776 5.17033
LeftLeg  1.68016 9.37882 -4.10568
LeftFoot  -1.08582 0.150166 -1.60086
LeftToes  -6.09394e-011 -3.18376e-011 -2.71738e-012
27
root  80.3852 40.4333 -6.23972 -173.597 -88.6329 174.799
RightUpLeg  -1.57316 -8.34676 -6.42248
RightLeg  2.20967 -0.818551 3.57245
RightFoot  -0.317244 -0.0294505 0.302366
RightToes  -5.8209e-011 0 -3.6325e-017
Spine  3.44366 -0.103555 0.0853569
Spine1  0.611709 -0.170783 0.290928
HEad  -2.09761 4.906 -0.817707
LeftShoulder1  0.591129 0.191372 -10.4039
LeftArm  -15.2139 6.85976 0.964702
LeftForeArm  12.5899 -1.30264 -2.68987
LeftHand  -0.244104 0.0205437 5.32207
RightShoulder  0.406428 -0.673285 6.72041
RightArm  -19.694 2.4832 -0.636276
RightForeArm  2.27974 0.0678098 3.49339
RightHand  -0.839951 2.42022 -12.6574
LeftUpLeg  -1.62771 6.23721 5.12578
LeftLeg  1.65014 9.44199 -4.13954
LeftFoot  -1.08295 0.146935 -1.56466
LeftToes  -6.09394e-011 -3.18376e-011 -2.71738e-012
